<?xml version="1.0" encoding="UTF-8" standalone="no"?><svg xmlns="http://www.w3.org/2000/svg" xmlns:xlink="http://www.w3.org/1999/xlink" contentScriptType="application/ecmascript" contentStyleType="text/css" height="273px" preserveAspectRatio="none" style="width:690px;height:273px;" version="1.1" viewBox="0 0 690 273" width="690px" zoomAndPan="magnify"><defs><filter height="300%" id="f9q851n4k08" width="300%" x="-1" y="-1"><feGaussianBlur result="blurOut" stdDeviation="2.0"/><feColorMatrix in="blurOut" result="blurOut2" type="matrix" values="0 0 0 0 0 0 0 0 0 0 0 0 0 0 0 0 0 0 .4 0"/><feOffset dx="4.0" dy="4.0" in="blurOut2" result="blurOut3"/><feBlend in="SourceGraphic" in2="blurOut3" mode="normal"/></filter></defs><g><!--MD5=[4e9ef7432a6a5fa1db9d025f7a1ec6fd]
class Indicavel--><rect codeLine="4" fill="#FEFECE" filter="url(#f9q851n4k08)" height="77.9638" id="Indicavel" style="stroke:#A80036;stroke-width:1.5;" width="172" x="49.5" y="19.84"/><ellipse cx="107.25" cy="35.84" fill="#B4A7E5" rx="11" ry="11" style="stroke:#A80036;stroke-width:1.0;"/><path d="M103.2813,42.34 L103.2813,40.6369 L105.6406,40.3713 L105.6406,32.1681 L103.2813,31.9025 L103.2813,30.1994 L110.4219,30.1994 L110.4219,31.9025 L108,32.1681 L108,40.3713 L110.4219,40.6369 L110.4219,42.34 L103.2813,42.34 Z " fill="#000000"/><text fill="#000000" font-family="sans-serif" font-size="12" font-style="italic" lengthAdjust="spacing" textLength="48" x="127.75" y="40.496">Indicavel</text><line style="stroke:#A80036;stroke-width:1.5;" x1="50.5" x2="220.5" y1="51.84" y2="51.84"/><rect fill="none" height="6" style="stroke:#C82930;stroke-width:1.0;" width="6" x="57.5" y="59.84"/><text fill="#000000" font-family="sans-serif" font-size="11" lengthAdjust="spacing" textLength="89" x="69.5" y="67.5989">Boolean elegivel;</text><rect fill="none" height="6" style="stroke:#C82930;stroke-width:1.0;" width="6" x="57.5" y="74.8219"/><text fill="#000000" font-family="sans-serif" font-size="11" lengthAdjust="spacing" textLength="146" x="69.5" y="82.5808">Short numeroDeIndicacoes;</text><line style="stroke:#A80036;stroke-width:1.5;" x1="50.5" x2="220.5" y1="89.8038" y2="89.8038"/><!--MD5=[002a3db1b9d69a876c19a1a41f501567]
class Filme--><rect codeLine="9" fill="#FEFECE" filter="url(#f9q851n4k08)" height="88.652" id="Filme" style="stroke:#A80036;stroke-width:1.5;" width="103" x="7" y="170.64"/><ellipse cx="22" cy="191.9841" fill="#ADD1B2" rx="11" ry="11" style="stroke:#A80036;stroke-width:1.0;"/><path d="M21.4688,198.906 Q19.7188,198.906 18.5781,198.1716 Q17.4531,197.4216 16.8906,196.0779 Q16.3438,194.7185 16.3438,192.9216 Q16.3438,190.8904 17,189.4372 Q17.6563,187.9841 18.9375,187.2029 Q20.2188,186.4216 22.0938,186.4216 Q22.9844,186.4216 23.6563,186.6091 Q24.3281,186.781 25.0156,187.1247 L24.2031,189.1404 Q23.5781,188.8279 23.0313,188.7029 Q22.5,188.5779 22.0156,188.5779 Q20.8438,188.5779 20.1406,189.1091 Q19.4375,189.6404 19.1406,190.5935 Q18.8438,191.5466 18.8438,192.8122 Q18.8438,194.8279 19.5625,195.7966 Q20.2813,196.7497 21.875,196.7497 Q22.4688,196.7497 23.0938,196.5935 Q23.7188,196.4372 24.5469,196.0622 L24.5469,198.281 Q23.8125,198.5935 23.0156,198.7497 Q22.2344,198.906 21.4688,198.906 Z " fill="#000000"/><text fill="#000000" font-family="sans-serif" font-size="12" font-style="italic" lengthAdjust="spacing" textLength="75" x="34" y="188.4681">«Component»</text><text fill="#000000" font-family="sans-serif" font-size="12" lengthAdjust="spacing" textLength="30" x="56.5" y="204.8122">Filme</text><line style="stroke:#A80036;stroke-width:1.5;" x1="8" x2="109" y1="213.3282" y2="213.3282"/><rect fill="none" height="6" style="stroke:#C82930;stroke-width:1.0;" width="6" x="15" y="221.3282"/><text fill="#000000" font-family="sans-serif" font-size="11" lengthAdjust="spacing" textLength="68" x="27" y="229.0871">String nome;</text><rect fill="none" height="6" style="stroke:#C82930;stroke-width:1.0;" width="6" x="15" y="236.3101"/><text fill="#000000" font-family="sans-serif" font-size="11" lengthAdjust="spacing" textLength="76" x="27" y="244.069">String genero;</text><line style="stroke:#A80036;stroke-width:1.5;" x1="8" x2="109" y1="251.292" y2="251.292"/><!--MD5=[8d764066fba3ef9ba1e1ef5efacf89e0]
class Ator--><rect codeLine="14" fill="#FEFECE" filter="url(#f9q851n4k08)" height="88.652" id="Ator" style="stroke:#A80036;stroke-width:1.5;" width="137" x="145" y="170.64"/><ellipse cx="175.3" cy="191.9841" fill="#ADD1B2" rx="11" ry="11" style="stroke:#A80036;stroke-width:1.0;"/><path d="M174.7688,198.906 Q173.0188,198.906 171.8781,198.1716 Q170.7531,197.4216 170.1906,196.0779 Q169.6438,194.7185 169.6438,192.9216 Q169.6438,190.8904 170.3,189.4372 Q170.9563,187.9841 172.2375,187.2029 Q173.5188,186.4216 175.3938,186.4216 Q176.2844,186.4216 176.9563,186.6091 Q177.6281,186.781 178.3156,187.1247 L177.5031,189.1404 Q176.8781,188.8279 176.3313,188.7029 Q175.8,188.5779 175.3156,188.5779 Q174.1438,188.5779 173.4406,189.1091 Q172.7375,189.6404 172.4406,190.5935 Q172.1438,191.5466 172.1438,192.8122 Q172.1438,194.8279 172.8625,195.7966 Q173.5813,196.7497 175.175,196.7497 Q175.7688,196.7497 176.3938,196.5935 Q177.0188,196.4372 177.8469,196.0622 L177.8469,198.281 Q177.1125,198.5935 176.3156,198.7497 Q175.5344,198.906 174.7688,198.906 Z " fill="#000000"/><text fill="#000000" font-family="sans-serif" font-size="12" font-style="italic" lengthAdjust="spacing" textLength="75" x="190.7" y="188.4681">«Component»</text><text fill="#000000" font-family="sans-serif" font-size="12" lengthAdjust="spacing" textLength="24" x="216.2" y="204.8122">Ator</text><line style="stroke:#A80036;stroke-width:1.5;" x1="146" x2="281" y1="213.3282" y2="213.3282"/><rect fill="none" height="6" style="stroke:#C82930;stroke-width:1.0;" width="6" x="153" y="221.3282"/><text fill="#000000" font-family="sans-serif" font-size="11" lengthAdjust="spacing" textLength="68" x="165" y="229.0871">String nome;</text><rect fill="none" height="6" style="stroke:#C82930;stroke-width:1.0;" width="6" x="153" y="236.3101"/><text fill="#000000" font-family="sans-serif" font-size="11" lengthAdjust="spacing" textLength="111" x="165" y="244.069">String nacionalidade;</text><line style="stroke:#A80036;stroke-width:1.5;" x1="146" x2="281" y1="251.292" y2="251.292"/><!--MD5=[76b0fc3d0f87e8a9d87b17485c0cbf20]
class Indicacao--><rect codeLine="19" fill="#FEFECE" filter="url(#f9q851n4k08)" height="88.652" id="Indicacao" style="stroke:#A80036;stroke-width:1.5;" width="125" x="257" y="14.5"/><ellipse cx="281.9" cy="35.8441" fill="#ADD1B2" rx="11" ry="11" style="stroke:#A80036;stroke-width:1.0;"/><path d="M281.3688,42.766 Q279.6188,42.766 278.4781,42.0316 Q277.3531,41.2816 276.7906,39.9379 Q276.2438,38.5785 276.2438,36.7816 Q276.2438,34.7504 276.9,33.2972 Q277.5563,31.8441 278.8375,31.0629 Q280.1188,30.2816 281.9938,30.2816 Q282.8844,30.2816 283.5563,30.4691 Q284.2281,30.641 284.9156,30.9847 L284.1031,33.0004 Q283.4781,32.6879 282.9313,32.5629 Q282.4,32.4379 281.9156,32.4379 Q280.7438,32.4379 280.0406,32.9691 Q279.3375,33.5004 279.0406,34.4535 Q278.7438,35.4066 278.7438,36.6722 Q278.7438,38.6879 279.4625,39.6566 Q280.1813,40.6097 281.775,40.6097 Q282.3688,40.6097 282.9938,40.4535 Q283.6188,40.2972 284.4469,39.9222 L284.4469,42.141 Q283.7125,42.4535 282.9156,42.6097 Q282.1344,42.766 281.3688,42.766 Z " fill="#000000"/><text fill="#000000" font-family="sans-serif" font-size="12" font-style="italic" lengthAdjust="spacing" textLength="75" x="296.1" y="32.3281">«Component»</text><text fill="#000000" font-family="sans-serif" font-size="12" lengthAdjust="spacing" textLength="54" x="306.6" y="48.6722">Indicacao</text><line style="stroke:#A80036;stroke-width:1.5;" x1="258" x2="381" y1="57.1882" y2="57.1882"/><rect fill="none" height="6" style="stroke:#C82930;stroke-width:1.0;" width="6" x="265" y="65.1882"/><text fill="#000000" font-family="sans-serif" font-size="11" lengthAdjust="spacing" textLength="99" x="277" y="72.9471">Indicavel indicavel;</text><rect fill="none" height="6" style="stroke:#C82930;stroke-width:1.0;" width="6" x="265" y="80.1701"/><text fill="#000000" font-family="sans-serif" font-size="11" lengthAdjust="spacing" textLength="87" x="277" y="87.929">String categoria;</text><line style="stroke:#A80036;stroke-width:1.5;" x1="258" x2="381" y1="95.152" y2="95.152"/><!--MD5=[f741ee0996b0eec6d71c55bb51ed26f9]
class OscarService--><rect codeLine="24" fill="#FEFECE" filter="url(#f9q851n4k08)" height="103.6339" id="OscarService" style="stroke:#A80036;stroke-width:1.5;" width="259" x="417" y="7"/><ellipse cx="505.25" cy="28.3441" fill="#ADD1B2" rx="11" ry="11" style="stroke:#A80036;stroke-width:1.0;"/><path d="M504.7188,35.266 Q502.9688,35.266 501.8281,34.5316 Q500.7031,33.7816 500.1406,32.4379 Q499.5938,31.0785 499.5938,29.2816 Q499.5938,27.2504 500.25,25.7972 Q500.9063,24.3441 502.1875,23.5629 Q503.4688,22.7816 505.3438,22.7816 Q506.2344,22.7816 506.9063,22.9691 Q507.5781,23.141 508.2656,23.4847 L507.4531,25.5004 Q506.8281,25.1879 506.2813,25.0629 Q505.75,24.9379 505.2656,24.9379 Q504.0938,24.9379 503.3906,25.4691 Q502.6875,26.0004 502.3906,26.9535 Q502.0938,27.9066 502.0938,29.1722 Q502.0938,31.1879 502.8125,32.1566 Q503.5313,33.1097 505.125,33.1097 Q505.7188,33.1097 506.3438,32.9535 Q506.9688,32.7972 507.7969,32.4222 L507.7969,34.641 Q507.0625,34.9535 506.2656,35.1097 Q505.4844,35.266 504.7188,35.266 Z " fill="#000000"/><text fill="#000000" font-family="sans-serif" font-size="12" font-style="italic" lengthAdjust="spacing" textLength="49" x="538.25" y="24.8281">«Service»</text><text fill="#000000" font-family="sans-serif" font-size="12" lengthAdjust="spacing" textLength="74" x="525.75" y="41.1722">OscarService</text><line style="stroke:#A80036;stroke-width:1.5;" x1="418" x2="675" y1="49.6882" y2="49.6882"/><rect fill="none" height="6" style="stroke:#C82930;stroke-width:1.0;" width="6" x="425" y="57.6882"/><text fill="#000000" font-family="sans-serif" font-size="11" lengthAdjust="spacing" textLength="169" x="437" y="65.4471">ArrayList&lt;Indicacao&gt; indicacoes;</text><line style="stroke:#A80036;stroke-width:1.5;" x1="418" x2="675" y1="72.6701" y2="72.6701"/><ellipse cx="428" cy="83.6701" fill="#84BE84" rx="3" ry="3" style="stroke:#038048;stroke-width:1.0;"/><text fill="#000000" font-family="sans-serif" font-size="11" lengthAdjust="spacing" textLength="233" x="437" y="88.429">void adicionarIndicacao(Indicacao indicacao)</text><ellipse cx="428" cy="98.652" fill="#84BE84" rx="3" ry="3" style="stroke:#038048;stroke-width:1.0;"/><text fill="#000000" font-family="sans-serif" font-size="11" lengthAdjust="spacing" textLength="149" x="437" y="103.4109">void mostrarListaIndicados()</text><!--MD5=[5c781f81df866d3988a8c5506ede76ae]
reverse link Indicavel to Filme--><path d="M106.95,116.98 C98.14,134.61 88.59,153.74 80.31,170.3 " fill="none" id="Indicavel-backto-Filme" style="stroke:#A80036;stroke-width:1.0;stroke-dasharray:7.0,7.0;"/><polygon fill="none" points="100.59,114.04,115.79,99.28,113.11,120.3,100.59,114.04" style="stroke:#A80036;stroke-width:1.0;"/><!--MD5=[9a4c6cc570b3e74aefc31c67d0a8da96]
reverse link Indicavel to Ator--><path d="M164.42,116.98 C173.35,134.61 183.02,153.74 191.41,170.3 " fill="none" id="Indicavel-backto-Ator" style="stroke:#A80036;stroke-width:1.0;stroke-dasharray:7.0,7.0;"/><polygon fill="none" points="158.25,120.28,155.46,99.27,170.74,113.96,158.25,120.28" style="stroke:#A80036;stroke-width:1.0;"/><!--MD5=[4307047c3df47b1e7d39f443a3e4a7fa]
@startuml

skin rose

interface Indicavel {
  -Boolean elegivel;
  -Short numeroDeIndicacoes;
}

class Filme <<Component>> implements Indicavel {
  -String nome;
  -String genero;
}

class Ator <<Component>> implements Indicavel {
  -String nome;
  -String nacionalidade;
}

class Indicacao <<Component>> {
  -Indicavel indicavel;
  -String categoria;
}

class OscarService <<Service>> {
  -ArrayList<Indicacao> indicacoes;
  +void adicionarIndicacao(Indicacao indicacao)
  +void mostrarListaIndicados()
}

@enduml

PlantUML version 1.2021.00(Sun Jan 10 07:25:05 BRT 2021)
(MIT source distribution)
Java Runtime: OpenJDK Runtime Environment
JVM: OpenJDK 64-Bit Server VM
Default Encoding: UTF-8
Language: en
Country: GB
--></g></svg>