<?xml version="1.0" encoding="UTF-8" standalone="no"?><svg xmlns="http://www.w3.org/2000/svg" xmlns:xlink="http://www.w3.org/1999/xlink" contentScriptType="application/ecmascript" contentStyleType="text/css" height="494px" preserveAspectRatio="none" style="width:557px;height:494px;" version="1.1" viewBox="0 0 557 494" width="557px" zoomAndPan="magnify"><defs><filter height="300%" id="f1qj2lgmu9xzq6" width="300%" x="-1" y="-1"><feGaussianBlur result="blurOut" stdDeviation="2.0"/><feColorMatrix in="blurOut" result="blurOut2" type="matrix" values="0 0 0 0 0 0 0 0 0 0 0 0 0 0 0 0 0 0 .4 0"/><feOffset dx="4.0" dy="4.0" in="blurOut2" result="blurOut3"/><feBlend in="SourceGraphic" in2="blurOut3" mode="normal"/></filter></defs><g><ellipse cx="283.75" cy="20" fill="#000000" filter="url(#f1qj2lgmu9xzq6)" rx="10" ry="10" style="stroke:none;stroke-width:1.0;"/><rect fill="#000000" filter="url(#f1qj2lgmu9xzq6)" height="6" rx="2.5" ry="2.5" style="stroke:#000000;stroke-width:1.0;" width="529.5" x="11" y="50"/><rect fill="#FEFECE" filter="url(#f1qj2lgmu9xzq6)" height="36.3441" rx="12.5" ry="12.5" style="stroke:#A80036;stroke-width:1.5;" width="158" x="95.5" y="132.3441"/><text fill="#000000" font-family="sans-serif" font-size="12" lengthAdjust="spacing" textLength="138" x="105.5" y="155.1722">Cria uma nova Indicacao</text><polygon fill="#FEFECE" filter="url(#f1qj2lgmu9xzq6)" points="119,188.6882,230,188.6882,242,200.6882,230,212.6882,119,212.6882,107,200.6882,119,188.6882" style="stroke:#A80036;stroke-width:1.5;"/><text fill="#000000" font-family="sans-serif" font-size="11" lengthAdjust="spacing" textLength="111" x="119" y="204.9562">O Indicavel é elegivel</text><text fill="#000000" font-family="sans-serif" font-size="11" lengthAdjust="spacing" textLength="18" x="89" y="197.4653">sim</text><text fill="#000000" font-family="sans-serif" font-size="11" lengthAdjust="spacing" textLength="20" x="242" y="197.4653">nao</text><rect fill="#FEFECE" filter="url(#f1qj2lgmu9xzq6)" height="36.3441" rx="12.5" ry="12.5" style="stroke:#A80036;stroke-width:1.5;" width="148" x="23" y="222.6882"/><text fill="#000000" font-family="sans-serif" font-size="12" lengthAdjust="spacing" textLength="128" x="33" y="245.5163">numeroDeIndicaoes+1</text><rect fill="#FEFECE" filter="url(#f1qj2lgmu9xzq6)" height="36.3441" rx="12.5" ry="12.5" style="stroke:#A80036;stroke-width:1.5;" width="112" x="196" y="222.6882"/><text fill="#000000" font-family="sans-serif" font-size="12" lengthAdjust="spacing" textLength="92" x="206" y="245.5163">Retorna um erro</text><ellipse cx="252" cy="298.3603" fill="#FFFFFF" filter="url(#f1qj2lgmu9xzq6)" rx="11" ry="11" style="stroke:#000000;stroke-width:1.0;"/><ellipse cx="252" cy="298.3603" fill="#000000" rx="6" ry="6" style="stroke:#7F7F7F;stroke-width:1.0;"/><rect fill="#FEFECE" filter="url(#f1qj2lgmu9xzq6)" height="36.3441" rx="12.5" ry="12.5" style="stroke:#A80036;stroke-width:1.5;" width="298" x="25.5" y="329.3603"/><text fill="#000000" font-family="sans-serif" font-size="12" lengthAdjust="spacing" textLength="278" x="35.5" y="352.1884">Adiciona indicação usando o service OscarService</text><rect fill="#FEFECE" filter="url(#f1qj2lgmu9xzq6)" height="36.3441" rx="12.5" ry="12.5" style="stroke:#A80036;stroke-width:1.5;" width="216" x="66.5" y="76"/><text fill="#000000" font-family="sans-serif" font-size="12" lengthAdjust="spacing" textLength="196" x="76.5" y="98.8281">Cria um novo Indicavel [Filme/Ator]</text><polygon fill="#FEFECE" filter="url(#f1qj2lgmu9xzq6)" points="174.5,385.7044,174.5,385.7044,186.5,397.7044,174.5,409.7044,174.5,409.7044,162.5,397.7044,174.5,385.7044" style="stroke:#A80036;stroke-width:1.5;"/><rect fill="#FEFECE" filter="url(#f1qj2lgmu9xzq6)" height="36.3441" rx="12.5" ry="12.5" style="stroke:#A80036;stroke-width:1.5;" width="179" x="349.5" y="231.0162"/><text fill="#000000" font-family="sans-serif" font-size="12" lengthAdjust="spacing" textLength="159" x="359.5" y="253.8443">Retorna a lista de indicacoes</text><rect fill="#000000" filter="url(#f1qj2lgmu9xzq6)" height="6" rx="2.5" ry="2.5" style="stroke:#000000;stroke-width:1.0;" width="529.5" x="11" y="429.7044"/><ellipse cx="283.75" cy="466.7044" fill="#FFFFFF" filter="url(#f1qj2lgmu9xzq6)" rx="11" ry="11" style="stroke:#000000;stroke-width:1.0;"/><ellipse cx="283.75" cy="466.7044" fill="#000000" rx="6" ry="6" style="stroke:#7F7F7F;stroke-width:1.0;"/><line style="stroke:#A80036;stroke-width:1.5;" x1="252" x2="252" y1="259.0323" y2="287.3603"/><polygon fill="#A80036" points="248,277.3603,252,287.3603,256,277.3603,252,281.3603" style="stroke:#A80036;stroke-width:1.0;"/><line style="stroke:#A80036;stroke-width:1.5;" x1="107" x2="97" y1="200.6882" y2="200.6882"/><line style="stroke:#A80036;stroke-width:1.5;" x1="97" x2="97" y1="200.6882" y2="222.6882"/><polygon fill="#A80036" points="93,212.6882,97,222.6882,101,212.6882,97,216.6882" style="stroke:#A80036;stroke-width:1.0;"/><line style="stroke:#A80036;stroke-width:1.5;" x1="242" x2="252" y1="200.6882" y2="200.6882"/><line style="stroke:#A80036;stroke-width:1.5;" x1="252" x2="252" y1="200.6882" y2="222.6882"/><polygon fill="#A80036" points="248,212.6882,252,222.6882,256,212.6882,252,216.6882" style="stroke:#A80036;stroke-width:1.0;"/><line style="stroke:#A80036;stroke-width:1.5;" x1="97" x2="97" y1="259.0323" y2="314.3603"/><line style="stroke:#A80036;stroke-width:1.5;" x1="97" x2="174.5" y1="314.3603" y2="314.3603"/><line style="stroke:#A80036;stroke-width:1.5;" x1="174.5" x2="174.5" y1="314.3603" y2="329.3603"/><polygon fill="#A80036" points="170.5,319.3603,174.5,329.3603,178.5,319.3603,174.5,323.3603" style="stroke:#A80036;stroke-width:1.0;"/><line style="stroke:#A80036;stroke-width:1.5;" x1="174.5" x2="174.5" y1="168.6882" y2="188.6882"/><polygon fill="#A80036" points="170.5,178.6882,174.5,188.6882,178.5,178.6882,174.5,182.6882" style="stroke:#A80036;stroke-width:1.0;"/><line style="stroke:#A80036;stroke-width:1.5;" x1="174.5" x2="174.5" y1="112.3441" y2="132.3441"/><polygon fill="#A80036" points="170.5,122.3441,174.5,132.3441,178.5,122.3441,174.5,126.3441" style="stroke:#A80036;stroke-width:1.0;"/><line style="stroke:#A80036;stroke-width:1.5;" x1="186.5" x2="335.5" y1="397.7044" y2="397.7044"/><polygon fill="#A80036" points="331.5,262.2743,335.5,252.2743,339.5,262.2743,335.5,258.2743" style="stroke:#A80036;stroke-width:1.5;"/><line style="stroke:#A80036;stroke-width:1.5;" x1="335.5" x2="335.5" y1="94.1721" y2="397.7044"/><line style="stroke:#A80036;stroke-width:1.5;" x1="335.5" x2="282.5" y1="94.1721" y2="94.1721"/><polygon fill="#A80036" points="292.5,90.1721,282.5,94.1721,292.5,98.1721,288.5,94.1721" style="stroke:#A80036;stroke-width:1.0;"/><line style="stroke:#A80036;stroke-width:1.5;" x1="174.5" x2="174.5" y1="365.7044" y2="385.7044"/><polygon fill="#A80036" points="170.5,375.7044,174.5,385.7044,178.5,375.7044,174.5,379.7044" style="stroke:#A80036;stroke-width:1.0;"/><line style="stroke:#A80036;stroke-width:1.5;" x1="174.5" x2="174.5" y1="56" y2="76"/><polygon fill="#A80036" points="170.5,66,174.5,76,178.5,66,174.5,70" style="stroke:#A80036;stroke-width:1.0;"/><line style="stroke:#A80036;stroke-width:1.5;" x1="439" x2="439" y1="56" y2="231.0162"/><polygon fill="#A80036" points="435,221.0162,439,231.0162,443,221.0162,439,225.0162" style="stroke:#A80036;stroke-width:1.0;"/><line style="stroke:#A80036;stroke-width:1.5;" x1="174.5" x2="174.5" y1="409.7044" y2="429.7044"/><polygon fill="#A80036" points="170.5,419.7044,174.5,429.7044,178.5,419.7044,174.5,423.7044" style="stroke:#A80036;stroke-width:1.0;"/><line style="stroke:#A80036;stroke-width:1.5;" x1="439" x2="439" y1="267.3603" y2="429.7044"/><polygon fill="#A80036" points="435,419.7044,439,429.7044,443,419.7044,439,423.7044" style="stroke:#A80036;stroke-width:1.0;"/><line style="stroke:#A80036;stroke-width:1.5;" x1="283.75" x2="283.75" y1="30" y2="50"/><polygon fill="#A80036" points="279.75,40,283.75,50,287.75,40,283.75,44" style="stroke:#A80036;stroke-width:1.0;"/><line style="stroke:#A80036;stroke-width:1.5;" x1="283.75" x2="283.75" y1="435.7044" y2="455.7044"/><polygon fill="#A80036" points="279.75,445.7044,283.75,455.7044,287.75,445.7044,283.75,449.7044" style="stroke:#A80036;stroke-width:1.0;"/><!--MD5=[909fea3a0e502705e3d8d190f4267597]
@startuml

skin rose

start
fork
  repeat :Cria um novo Indicavel [Filme/Ator];
    :Cria uma nova Indicacao;
    if (O Indicavel é elegivel) then (sim)
      :numeroDeIndicaoes+1;
    else (nao)
      :Retorna um erro;
      stop
    endif
    :Adiciona indicação usando o service OscarService;
  repeat while()
fork again
  :Retorna a lista de indicacoes;
end fork;

stop

@enduml

PlantUML version 1.2021.00(Sun Jan 10 07:25:05 BRT 2021)
(MIT source distribution)
Java Runtime: OpenJDK Runtime Environment
JVM: OpenJDK 64-Bit Server VM
Default Encoding: UTF-8
Language: en
Country: GB
--></g></svg>